<svg xmlns="http://www.w3.org/2000/svg" viewBox="0 0 165.32 197.94"><defs><style>.cls-1{fill:#fff;}.cls-2{fill:#6f7e8e;}</style></defs><title>Asset 1</title><g id="Layer_2" data-name="Layer 2"><g id="Layer_1-2" data-name="Layer 1"><path class="cls-1" d="M159.38,21.36C106.45,18.58,89.62,6.46,84.62.87a2.64,2.64,0,0,0-3.93,0c-5,5.58-21.83,17.71-74.76,20.49A2.63,2.63,0,0,0,3.5,23.43C.12,39-18.24,143.23,81.4,197.61a2.65,2.65,0,0,0,2.53,0C183.56,143.23,165.2,39,161.82,23.43A2.63,2.63,0,0,0,159.38,21.36Z"/><path class="cls-2" d="M82.66,185.62c-36.63-21.24-59.5-52.16-68-92A171.24,171.24,0,0,1,13.16,32c38.45-2.71,58.77-10.53,69.5-18.2,10.73,7.68,31,15.49,69.5,18.2a171.23,171.23,0,0,1-1.49,61.65C142.16,133.46,119.29,164.38,82.66,185.62Z"/><path class="cls-1" d="M109.6,87.4h-13V71.81a13.93,13.93,0,0,0-27.87,0V87.4h-13V71.81a26.94,26.94,0,0,1,53.87,0V87.4Z"/><path class="cls-1" d="M112.33,79.65H53a3.77,3.77,0,0,0-3.77,3.77v44A3.77,3.77,0,0,0,53,131.17h59.33a3.77,3.77,0,0,0,3.77-3.77v-44A3.77,3.77,0,0,0,112.33,79.65Z"/><path class="cls-2" d="M90.8,96.59a8.13,8.13,0,1,0-13.46,6.15,1.6,1.6,0,0,1,.54,1.4L76.61,114.8a2.07,2.07,0,0,0,2.05,2.31h8a2.07,2.07,0,0,0,2.05-2.31l-1.27-10.67a1.6,1.6,0,0,1,.55-1.4A8.11,8.11,0,0,0,90.8,96.59Z"/></g></g></svg>